/* XPM */
static char *_cadcfc8dcd4422990fd686bf32feda9RcA0sWiIQBSRvL7F[] = {
/* columns rows colors chars-per-pixel */
"64 64 117 2 ",
"   c black",
".  c black",
"X  c #2C0C19",
"o  c #3E0D23",
"O  c #221623",
"+  c #251A27",
"@  c #311F35",
"#  c #2B222E",
"$  c #342435",
"%  c #352C37",
"&  c #362739",
"*  c #3B263C",
"=  c #352A3B",
"-  c #3B283C",
";  c #3C323D",
":  c #5B0716",
">  c #690E1D",
",  c #4A1B25",
"<  c #45162A",
"1  c #591927",
"2  c #511D2B",
"3  c #5E192B",
"4  c #601C2C",
"5  c #771221",
"6  c #791227",
"7  c #711F2B",
"8  c #631E30",
"9  c #402B3E",
"0  c #5C253C",
"q  c #44373E",
"w  c #3F3540",
"e  c #463548",
"r  c #454047",
"t  c #940A0A",
"y  c #AC0007",
"u  c #AA0108",
"i  c #A30A0F",
"p  c #B20006",
"a  c #B4010A",
"s  c #B8000B",
"d  c #9D1523",
"f  c #811B31",
"g  c #D6070F",
"h  c #C70E14",
"j  c #CB0E15",
"k  c #CC0D19",
"l  c #D50611",
"z  c #DD0613",
"x  c #D20F16",
"c  c #DB0A13",
"v  c #D20E1C",
"b  c #C41015",
"n  c #CD1316",
"m  c #C21318",
"M  c #CD111B",
"N  c #D11116",
"B  c #D2121A",
"V  c #EC000E",
"C  c #E70214",
"Z  c #EB0013",
"A  c #E00817",
"S  c #E80813",
"D  c #E50618",
"F  c #EB0318",
"G  c #E20B19",
"H  c #F20012",
"J  c #DC0D23",
"K  c #C61423",
"L  c #CC1323",
"P  c #D61321",
"I  c #DC1421",
"U  c #D21A24",
"Y  c #888189",
"T  c #978D98",
"R  c #9B8F9B",
"E  c #9B919A",
"W  c #A29BA3",
"Q  c #A9A4AA",
"!  c #B7BABF",
"~  c #DB9FAB",
"^  c #D3CCD4",
"/  c #D6D1D8",
"(  c #DDDBDE",
")  c #FFD4DA",
"_  c #FFDBDC",
"`  c #FFDAE1",
"'  c #E7E5EA",
"]  c #E9E7E8",
"[  c black",
"{  c #FFE9E4",
"}  c #FFEDEC",
"|  c #EEF0EC",
" . c #FBF2EB",
".. c black",
"X. c #F1EDF2",
"o. c #FFEFF3",
"O. c #F2F3F3",
"+. c #F6F6F4",
"@. c #FFF1F0",
"#. c #FEF4F2",
"$. c #F8F2F6",
"%. c #FBF5F5",
"&. c #FFF4F4",
"*. c #F1FAF6",
"=. c #FFFAF6",
"-. c #FFFEF5",
";. c #F4F3F8",
":. c #FFF2FA",
">. c #F5FBF9",
",. c #F7F8FC",
"<. c #F5FFFF",
"1. c #FFFBFA",
"2. c #FFFCFA",
"3. c #F9FDFF",
"4. c gray99",
"5. c #FEFCFD",
"6. c black",
/* pixels */
"[ [ [ [ 6.6.6.6.6.[ [ [ [ 6.6.6.6.[ [ [ [ 6.6.6.6.6.[ [ [ [ 6.6.6.6.[ [ [ [ 6.6.6.6.6.[ [ [ [ 6.6.6.6.[ [ [ [ 6.6.6.6.6.[ [ [ [ ",
"[ [ [ [ 6.6.6.6.6.[ [ [ [ 6.6.6.6.[ [ [ [ 6.6.6.6.6.[ [ [ [ 6.6.6.6.[ [ [ [ 6.6.6.6.6.[ [ [ [ 6.6.6.6.[ [ [ [ 6.6.6.6.6.[ [ [ [ ",
"[ [ [ [ 6.6.6.6.6.[ [ [ [ 6.6.6.6.[ [ [ [ 6.6.6.6.6.[ [ [ [ 6.6.6.6.[ [ [ [ 6.6.6.6.6.[ [ [ [ 6.6.6.6.[ [ [ [ 6.6.6.6.6.[ [ [ [ ",
"[ [ [ [ 6.6.6.6.6.[ [ [ [ 6.6.6.6.[ [ [ [ 6.6.6.6.6.[ [ [ [ 6.6.6.6.[ [ [ [ 6.6.6.6.6.[ [ [ [ 6.6.6.6.[ [ [ [ 6.6.6.6.6.[ [ [ [ ",
"6.6.6.6.[ [ [ [ [ 6.6.6.6.[ [ [ [ 6.6.6.6.[ [ [ [ [ 6.6.6.6.[ [ [ [ 6.6.6.6.[ [ [ [ [ 6.6.6.6.[ [ [ [ 6.6.6.6.[ [ [ [ [ 6.6.6.6.",
"6.6.6.6.[ [ [ [ [ 6.6.6.6.[ [ [ [ 6.6.6.6.[ [ [ [ [ 6.6.6.6.[ [ [ [ 6.6.6.6.[ [ [ [ [ 6.6.6.6.[ [ [ [ 6.6.6.6.[ [ [ [ [ 6.6.6.6.",
"6.6.6.6.[ [ [ [ [ 6.6.6.6.[ [ [ [ 6.6.6.6.[ [ [ [ [ 6.6.6.6.[ [ [ [ 6.6.6.6.[ [ [ [ [ 6.6.6.6.[ [ [ [ 6.6.6.6.[ [ [ [ [ 6.6.6.6.",
"6.6.6.6.[ [ [ [ [ 6.6.6.6.[ [ [ [ 6.6.6.6.[ [ [ [ [ 6.6.6.6.[ [ [ [ 6.6.6.6.[ [ [ [ [ 6.6.6.6.[ [ [ [ 6.6.6.6.[ [ [ [ [ 6.6.6.6.",
"6.6.6.6.[ [ [ [ [ 6.6.6.6.[ [ [ [ 6.6.6.6.[ [ [ [ [ 6.6.6.6.[ [ [ [ 6.6.6.6.[ [ [ [ [ 6.6.6.6.[ [ [ [ 6.6.6.6.[ [ [ [ [ 6.6.6.6.",
"[ [ [ [ 6.6.6.6.6.[ [ [ [ 6.6.6.6.[ [ [ [ 6.6.6.6.6.[ [ [ [ 6.6.6.6.[ [ [ [ 6.6.6.6.6.[ [ [ [ 6.6.6.6.[ [ [ [ 6.6.6.6.6.[ [ [ [ ",
"[ [ [ [ 6.+ w w ; ; ; ; ; w w w w ; ; ; ; w w w w w ; ; ; ; w w e w ; ; ; ; ; w w w w ; ; ; ; w w w w ; ; ; ; w ; = ' 6.[ [ [ [ ",
"[ [ [ [ 6.( & $ & - - * - - - - - - - - - - - - - - * - - - - - - - - - - - - - - - - - - - - - - - - - - - - - - e 6.6.[ [ [ [ ",
"[ [ [ [ 6.6.6.O - - - - - - - - - - - - - - - - - - - - - - - - - - - - - - - - - - - - - - - - - - - - - - - - 6.6.6.6.[ [ [ [ ",
"6.6.6.6.[ [ | ^ - - - - - - - - - - - - - - - - - - - - - - - - - - - - - - - - - - - - - - - - - - - - - - - # O.| [ [ 6.6.6.6.",
"6.6.6.6.[ [ [ [ 6.:.B P P P P P P P P P P P B P P P P P v N M v x B P P P P P P P P P P B P P B P P P P J I 6.O.[ [ [ [ 6.6.6.6.",
"6.6.6.6.[ [ [ O.O.o.C Z Z Z C Z Z Z Z Z Z Z Z Z Z Z Z Z Z k L L L 0 Z Z Z Z Z Z Z Z Z Z Z Z Z Z Z Z Z V V S 6.[ [ [ [ [ 6.6.6.6.",
"6.6.6.6.[ [ [ [ [ 1.} } } _ _ ` 4 8 8 8 ` _ _ _ _ _ } } { ) Z V Z 2 } } } } _ _ _ _ _ 1 8 8 8 ~ _ _ _ } } } 6.[ [ [ [ [ 6.6.6.6.",
"[ [ [ [ 6.6.6.6.6.[ [ [ [ 6.6.3.& - - - 6.6.6.6.6.6.[ [ [ 6.V Z Z 3 [ [ [ [ 6.6.6.6.6.* - * - / 6.6.6.[ [ [ [ 6.6.6.6.6.[ [ [ [ ",
"[ [ [ [ 6.6.6.6.6.[ [ [ [ 6.6.2.$ = 9 % 6.6.6.6.6.6.[ [ [ 6.V Z Z 3 [ [ [ [ 6.6.6.6.6.@ * % = ^ 6.6.6.[ [ [ [ 6.6.6.6.6.[ [ [ [ ",
"[ [ [ [ 6.6.6.6.6.[ [ [ [ 6.6.6.# 2 , o X.6.6.6.6.6.[ [ [ 6.V Z Z 3 [ [ [ [ 6.6.6.6.6.. 2 2 < ! 6.6.6.[ [ [ [ 6.6.6.6.6.[ [ [ [ ",
"[ [ [ [ 6.6.6.6.6.[ [ [ [ 6.6.6.2.V Z x [ 6.6.6.6.6.[ [ [ 6.V Z z 4 [ [ [ [ 6.6.6.6.6.O.Z Z z 6.6.6.6.[ [ [ [ 6.6.6.6.6.[ [ [ [ ",
"6.6.6.6.[ [ [ [ [ 6.6.6.6.[ [ [ &.V Z M 6.[ [ [ [ [ 6.6.3.6.J G G 7 6.6.6.6.[ [ [ [ [ 6.Z Z c [ [ [ [ 6.6.6.6.[ [ [ [ [ 6.6.6.6.",
"6.6.6.6.[ [ [ [ [ 6.6.6.6.[ [ X.>.p s i 6.[ [ [ [ [ 6.6.3.6.| ;. .$.6.6.6.6.[ [ [ [ [ <.a a u ..[ [ [ 6.6.6.6.[ [ [ [ [ 6.6.6.6.",
"6.6.6.6.[ [ [ [ [ ,.d j j j b b U D G l j j j j j j h h j j j j j j h h h j j j j j k M Z D S M j j k h b X 6.[ [ [ [ [ 6.6.6.6.",
"6.6.6.6.[ [ [ [ [ 6.K Z Z Z C Z Z Z Z V Z Z Z Z Z Z Z Z Z Z Z Z Z Z Z Z Z Z Z Z Z Z Z Z Z Z Z Z Z Z Z Z H * 6.[ [ [ [ [ 6.6.6.6.",
"6.6.6.6.[ [ [ [ [ 6.K Z Z Z V V Z V V V Z Z Z V V V Z Z Z Z Z V V V Z Z Z Z Z Z V V V Z V Z Z V V Z Z Z H * 6.[ [ [ [ [ 6.6.6.6.",
"[ [ [ [ 6.6.6.6.6.+.-.#.#.2.=.=.&.p a t #.2.1.1.1.2.%.&.&.#.2.1.1.1.&.%.%.#.6.6.1.1.2.1.y p t 2.1.1.1.%.@.6.[ 6.6.6.6.6.[ [ [ [ ",
"[ [ [ [ 6.6.6.6.6.[ [ ....6.6.6.6.F A m ..6.6.6.6.6.[ ......6.6.6.6...[ [ ..6.6.6.6.6.+.C F j 3.6.6.6.....[ [ 6.6.6.6.6.[ [ [ [ ",
"[ [ [ [ 6.6.6.6.6.[ [ [ [ 6.6.6.6.Z Z n [ 6.6.6.6.6.[ [ [ [ 6.6.6.6.[ [ [ [ 6.6.6.6.6.+.Z Z l 6.6.6.6.[ [ ..[ 6.6.6.6.6.[ [ [ [ ",
"[ [ [ [ 6.6.6.6.6.[ [ [ [ 6.6.6.6.Z Z N [ 6.6.6.6.6.[ [ [ [ 6.6.6.6.[ [ [ [ 6.6.6.6.6.*.Z Z l 6.6.6.6.[ [ [ [ 6.6.6.6.6.[ [ [ [ ",
"6.6.6.6.[ [ [ [ [ 6.6.6.6.[ [ ..6.Z Z N 6.[ [ [ [ [ 6.6.6.6.[ [ [ [ 6.6.6.6.[ [ [ [ [ 6.Z Z c ....[ [ 6.6.6.6.[ [ [ [ [ 6.6.6.6.",
"6.6.6.6.[ [ [ [ [ 6.6.6.6.[ [ ..3.V Z N 6.[ [ [ [ [ 6.6.6.6.[ [ [ [ 6.6.6.6.[ [ [ [ [ 6.Z Z c ..[ [ [ 6.6.6.6.[ [ [ [ [ 6.6.6.6.",
"6.6.6.6.[ [ [ [ [ 6.6.6.6.[ [ ..3.V Z N 6.[ [ [ [ [ 6.6.6.6.[ [ [ [ 6.6.6.6.[ [ [ [ [ 6.Z Z c ..[ [ [ 6.6.6.6.[ [ [ [ [ 6.6.6.6.",
"6.6.6.6.[ [ [ [ [ 6.6.6.6.[ [ ..3.V Z N 6.[ [ ..[ [ 6.6.6.6.[ [ [ [ 6.6.6.6.[ [ [ [ [ 6.Z Z c ..[ [ [ 6.6.6.6.[ [ [ [ [ 6.6.6.6.",
"[ [ [ [ 6.6.6.6.6.[ [ [ [ 6.6.6.2.Z Z N [ 6.6.6.6.6.[ [ [ [ 6.6.6.6.[ [ [ [ 6.6.6.6.6.*.Z Z g 6.6.6.6.[ [ [ [ 6.6.6.6.6.[ [ [ [ ",
"[ [ [ [ 6.6.6.6.6.[ [ [ [ 6.6.6.2.Z Z N [ 6.6.6.6.6.[ [ [ [ 6.6.6.6.[ [ [ [ 6.6.6.6.6.*.Z Z g 6.6.6.6.[ [ [ [ 6.6.6.6.6.[ [ [ [ ",
"[ [ [ [ 6.6.6.6.6.[ [ [ [ 6.6.6.2.Z Z N [ 6.6.6.6.6.[ [ [ [ 6.6.6.6.[ [ [ [ 6.6.6.6.6.*.Z Z g 6.6.6.6.[ [ [ [ 6.6.6.6.6.[ [ [ [ ",
"[ [ [ [ 6.6.6.6.6.[ [ [ [ 6.6.6.6.Z Z N [ 6.6.6.6.6.[ [ [ [ 6.6.6.6.[ [ [ [ 6.6.6.6.6.*.Z Z l 6.6.6.6.[ [ [ [ 6.6.6.6.6.[ [ [ [ ",
"6.6.6.6.[ [ [ [ [ 6.6.6.6.[ [ [ 6.Z Z N 6.[ [ [ [ [ 6.6.6.6.[ [ [ [ 6.6.6.6.[ [ [ [ [ 6.Z Z c [ [ [ [ 6.6.6.6.[ [ [ [ [ 6.6.6.6.",
"6.6.6.6.[ [ [ [ [ 6.6.6.6.[ [ ..6.Z Z N 6.[ [ [ [ [ 6.6.6.6.[ [ [ [ 6.6.6.6.[ [ [ [ [ 6.Z Z c [ ..[ [ 6.6.6.6.[ [ [ [ [ 6.6.6.6.",
"6.6.6.6.[ [ [ [ [ 6.6.6.6.[ [ ..3.V Z N 6.[ [ [ [ [ 6.6.6.6.[ [ [ [ 6.6.6.6.[ [ [ [ [ 6.Z Z c ..[ [ [ 6.6.6.6.[ [ [ [ [ 6.6.6.6.",
"6.6.6.6.[ [ [ [ [ 6.6.6.6.[ [ ..3.V Z N 6.[ [ [ [ [ 6.6.6.6.[ [ [ [ 6.6.6.6.[ [ [ [ [ 6.Z Z c ..[ [ [ 6.6.6.6.[ [ [ [ [ 6.6.6.6.",
"6.6.6.6.[ [ [ [ [ 6.6.6.6.[ [ [ 3.V Z N 6.[ [ [ [ [ 6.6.6.6.[ [ [ [ 6.6.6.6.[ [ [ [ [ 6.Z Z c [ [ [ [ 6.6.6.6.[ [ [ [ [ 6.6.6.6.",
"[ [ [ [ 6.6.6.6.6.[ [ [ [ 6.6.6.2.Z Z N [ 6.6.6.6.6.[ [ [ [ 6.6.6.6.[ [ [ [ 6.6.6.6.6.*.Z Z g 6.6.6.6.[ [ [ [ 6.6.6.6.6.[ [ [ [ ",
"[ [ [ [ 6.6.6.6.6.[ [ [ [ 6.6.6.2.Z Z N [ 6.6.6.6.6.[ [ [ [ 6.6.6.6.[ [ [ [ 6.6.6.6.6.*.Z Z g 6.6.6.6.[ [ [ [ 6.6.6.6.6.[ [ [ [ ",
"[ [ [ [ 6.6.6.6.6.[ [ [ [ 6.6.6.2.Z Z M [ 6.6.6.6.6.[ [ [ [ 6.6.6.6.[ [ [ [ 6.6.6.6.6.*.Z Z l 6.6.6.6.[ [ [ [ 6.6.6.6.6.[ [ [ [ ",
"[ [ [ [ 6.6.6.6.6.[ [ [ [ 6.6.6.q 6 f : r 6.6.6.6.6.[ [ [ [ 6.6.6.6.[ [ [ [ 6.6.6.6.6.; 5 5 > = 6.6.6.[ [ [ [ 6.6.6.6.6.[ [ [ [ ",
"6.6.6.6.[ [ [ [ [ 6.6.6.6.[ | 6.- * - * O [ ..[ [ [ 6.6.6.6.[ [ [ [ 6.6.6.6.[ [ [ O.6.* * - - O [ [ [ 6.6.6.6.[ [ [ [ [ 6.6.6.6.",
"6.6.6.6.[ [ [ [ [ 6.6.6.6.[ [ 6.- - - - O [ [ [ [ [ 6.6.6.6.[ [ [ [ 6.6.6.6.[ [ [ O.6.* - - - O [ [ [ 6.6.6.6.[ [ [ [ [ 6.6.6.6.",
"6.6.6.6.[ [ [ [ [ 6.6.6.6.[ [ 6.- - - - O [ [ [ [ [ 6.6.6.6.[ [ [ [ 6.6.6.6.[ [ [ O.6.* - - - O [ [ [ 6.6.6.6.[ [ [ [ [ 6.6.6.6.",
"6.6.6.6.[ [ [ [ [ 6.6.6.6.[ [ 6.- - - - O [ [ [ [ [ 6.6.6.6.[ [ [ [ 6.6.6.6.[ [ [ O.6.* - - - O [ [ [ 6.6.6.6.[ [ [ [ [ 6.6.6.6.",
"[ [ [ [ 6.6.6.6.6.[ [ [ [ 6.6.6.- - - - O 6.6.6.6.6.[ [ [ [ 6.6.6.6.[ [ [ [ 6.6.6.6.6.- - - -   6.6.6.[ [ [ [ 6.6.6.6.6.[ [ [ [ ",
"[ [ [ [ 6.6.6.6.6.[ [ [ [ 6.6.6.- - - - O 6.6.6.6.6.[ [ [ [ 6.6.6.6.[ [ [ [ 6.6.6.6.6.- - - -   6.6.6.[ [ [ [ 6.6.6.6.6.[ [ [ [ ",
"[ [ [ [ 6.6.6.6.6.[ [ [ [ 6.6.6.- - - - + 6.6.6.6.6.[ [ [ [ 6.6.6.6.[ [ [ [ 6.6.6.6.6.- - - -   6.6.6.[ [ [ [ 6.6.6.6.6.[ [ [ [ ",
"[ [ [ [ 6.6.6.6.6.[ [ [ [ 6.6.6.- - - - O 6.6.6.6.6.[ [ [ [ 6.6.6.6.[ [ [ [ 6.6.6.6.6.- - - -   6.6.6.[ [ [ [ 6.6.6.6.6.[ [ [ [ ",
"6.6.6.6.[ [ [ [ [ 6.6.6.6.[ [ ;.T E E E Q ] [ [ [ [ 6.6.6.6.[ [ [ [ 6.6.6.6.[ [ [ [ [ W E R E Y [ [ [ 6.6.6.6.[ [ [ [ [ 6.6.6.6.",
"6.6.6.6.[ [ [ [ [ 6.6.6.6.[ [ [ X.6.6.6.6.[ [ [ [ [ 6.6.6.6.[ [ [ [ 6.6.6.6.[ [ [ [ [ 6.6.6.6.O.[ [ [ 6.6.6.6.[ [ [ [ [ 6.6.6.6.",
"6.6.6.6.[ [ [ [ [ 6.6.6.6.[ [ [ [ 6.6.6.6.[ [ [ [ [ 6.6.6.6.[ [ [ [ 6.6.6.6.[ [ [ [ [ 6.6.6.6.[ [ [ [ 6.6.6.6.[ [ [ [ [ 6.6.6.6.",
"6.6.6.6.[ [ [ [ [ 6.6.6.6.[ [ [ [ 6.6.6.6.[ [ [ [ [ 6.6.6.6.[ [ [ [ 6.6.6.6.[ [ [ [ [ 6.6.6.6.[ [ [ [ 6.6.6.6.[ [ [ [ [ 6.6.6.6.",
"6.6.6.6.[ [ [ [ [ 6.6.6.6.[ [ [ [ 6.6.6.6.[ [ [ [ [ 6.6.6.6.[ [ [ [ 6.6.6.6.[ [ [ [ [ 6.6.6.6.[ [ [ [ 6.6.6.6.[ [ [ [ [ 6.6.6.6.",
"[ [ [ [ 6.6.6.6.6.[ [ [ [ 6.6.6.6.[ [ [ [ 6.6.6.6.6.[ [ [ [ 6.6.6.6.[ [ [ [ 6.6.6.6.6.[ [ [ [ 6.6.6.6.[ [ [ [ 6.6.6.6.6.[ [ [ [ ",
"[ [ [ [ 6.6.6.6.6.[ [ [ [ 6.6.6.6.[ [ [ [ 6.6.6.6.6.[ [ [ [ 6.6.6.6.[ [ [ [ 6.6.6.6.6.[ [ [ [ 6.6.6.6.[ [ [ [ 6.6.6.6.6.[ [ [ [ ",
"[ [ [ [ 6.6.6.6.6.[ [ [ [ 6.6.6.6.[ [ [ [ 6.6.6.6.6.[ [ [ [ 6.6.6.6.[ [ [ [ 6.6.6.6.6.[ [ [ [ 6.6.6.6.[ [ [ [ 6.6.6.6.6.[ [ [ [ ",
"[ [ [ [ 6.6.6.6.6.[ [ [ [ 6.6.6.6.[ [ [ [ 6.6.6.6.6.[ [ [ [ 6.6.6.6.[ [ [ [ 6.6.6.6.6.[ [ [ [ 6.6.6.6.[ [ [ [ 6.6.6.6.6.[ [ [ [ "
};
