/* XPM */
static char *_d4739e987b446ebf19e26490b531e212i7vBJTtudyGnd48[] = {
/* columns rows colors chars-per-pixel */
"64 64 13 1 ",
"  c None",
". c black",
"X c #3F0B00",
"o c gray18",
"O c #7D1500",
"+ c #4C3D00",
"@ c #434343",
"# c gray27",
"$ c #CC0000",
"% c #E80808",
"& c #856B00",
"* c #C3A382",
"= c #FCE5CD",
/* pixels */
"                                                                ",
"        .                                              .        ",
"        ..                                            ..        ",
"        .@.                                          .#.        ",
"        .@.                    ..                    .#.        ",
"        .@#.                  .+&.                  .##.        ",
"        .o##.                .++&&.                .##o.        ",
"        .o###.               .+&&&.               .###o.        ",
"        .oo###.             .++&&&&.             .###@o.        ",
"        .oo####.           .+++&&&&&.           .####oo.        ",
"         .oo####.. ..    ...++&&&&&+...    .. ..####@o.         ",
"         .oo######.&.....OOOO+&&&&+OOOO.....&.######oo.         ",
"          .oo######&+OXXXXO$$$++++$$$$XXXXO+&######@o.          ",
"          .ooo#####&+OOO$$XXX$$$$$$XXX$$$$O+&#####@oo.          ",
"           .ooo####&+OO$$$$$$XXXXXX$$$$$$$O+&####@oo.           ",
"            .ooo##&+OXXXXX$$$$$$$$$$$$XXXXXO+&##@oo.            ",
"             .oooo&+OO$$$$XX$$$$$$$$XX$$$$$O+&@@oo.             ",
"              .oo&+OO$$$$$$$XX$$$$XX$$$$$$$$O+&oo.              ",
"              .&&+XXXXX$$$$$$$X$$X$$$$$$$XXXXX+&&.              ",
"              .++O&$$$$XXX$$$$$XX$$$$$XXX$$$$&O++.              ",
"               .OO&$$$$&&$XX$$$$$$$$XX$&&$$$$&$O.               ",
"              .OO$$&$$&$$&$$X$$$$$$X$$&$$&$$&$$$O.              ",
"              .OO$$&$$$&$&$$$X$$$$X$$$&$&$$$&$$$O.              ",
"              .OXX$$&&$$$&$$$$X$$X$$$$&$$$&&$$XXO.              ",
"              .X$$XX$$&&&$$$$$XXXX$$$$$&&&$$XX$$X.              ",
"             .OO$$$$XX$$$$$XXX$$$$XXX$$$$$XX$$$$$O.             ",
"             .OO$$$........$$$$$$$$$$........$$$$O.             ",
"             .OO$.........X$$$.$$X$$$X.........$$O.             ",
"             .OOX....%%%..X$$.O$$$X$$X..%%%....X$O.             ",
"             .OO$X...%%%..X$$.O$$$X$$X..%%%...X$$O.             ",
"             .OO$$X.......X$$.O$$$X$$X.......X$$$O.             ",
"             .OO$$$XX....X$$$.O..$X$$$X....XX$$$$O.             ",
"             .OO$$$$$XXXX$$$.O$OO$$X$$$XXXX$$$$$$O.             ",
"             .OO$$$$$$$$$$$.O$$$$$$$X$$$$$$$$$$$$O.             ",
"             .OO$$$$$$$$$$$.O$.OO.$$X$$$$$$$$$$$$O.             ",
"              .X$$$$$$$$X$.O$$O..O$$$X$X$$$$$$$$X.              ",
"              .OXX$$$$XXO$.O$$$$$$$$$X$OXX$$$$XXO.              ",
"              .OOOXXXXOO$.OO$$.OO.$$OOX$OOXXXXOOO.              ",
"               .OOOOOO$$$...O$O..O$O..X$$$OOOO$O.               ",
"               .XO$$$$$$$O...O$$$$OX..O$$$$$$$$X.               ",
"               .OXO$$$$$$$OOO.OOOOXOOO$$$$$$$$XO.               ",
"               .OXO$$$$$$$$$$O..XXO$$$$$$$$$$$XO.               ",
"                .XO$$...$$$$$$OOOO$$$$$$...$$$X.                ",
"                .XO$.==*..$$$$$OO$$$$$..===.$$X.                ",
"                 .O$.===*..............*===.$O.                 ",
"                 .O$.===*.*=.===.==.=*.*===.$O.                 ",
"                  .O.===*....***.**....*===.O.                  ",
"                   ..==*................*==..                   ",
"                  ..O.=*................*=.O..                  ",
"                  ..O.=*................*=.O..                  ",
"                  .*..=*................*=..*.                  ",
"                  .*=.=*................*=.=*.                  ",
"                  .*=.*..................*.=*.                  ",
"                   .*.*..*............*..*.*.                   ",
"                   .*=.==.**.**.**.***.==.=*.                   ",
"                    .*.==.=..........=.==.*.                    ",
"                     .***..$$$$$$$$$$..***.                     ",
"                      ...O$$........$$$...                      ",
"                       .O$$.OOOOOOOO.$$O.                       ",
"                        .O$$$$$$$$$$$$O.                        ",
"                         .OO$$$OO$$$OO.                         ",
"                          ..OOO..OOO..                          ",
"                            ...  ...                            ",
"                                                                "
};
