/* XPM */
static char *_5a83e50fe694cd6e6dc1fab8d601df5QloDoMRtqwesR2nh[] = {
/* columns rows colors chars-per-pixel */
"64 64 109 2 ",
"   c black",
".  c #0D0000",
"X  c #140000",
"o  c #1C0000",
"O  c #230000",
"+  c #2B0000",
"@  c #340000",
"#  c #3C0000",
"$  c #430000",
"%  c #4B0000",
"&  c #540000",
"*  c #5B0000",
"=  c #640000",
"-  c #6C0000",
";  c #730000",
":  c #7B0000",
">  c #830000",
",  c #8B0000",
"<  c #920000",
"1  c #9C0000",
"2  c #A20000",
"3  c #AD0000",
"4  c #B30000",
"5  c #BA0000",
"6  c #C30000",
"7  c #CC0101",
"8  c #D30505",
"9  c #DB0A0A",
"0  c #E20E0E",
"q  c #EB1515",
"w  c #F41C1C",
"e  c #F81F1F",
"r  c #FE2424",
"t  c #FF2F2F",
"y  c #FF2D2D",
"u  c #FF2828",
"i  c #FF3232",
"p  c #FF3535",
"a  c #FF3636",
"s  c #FF3737",
"d  c #FF3838",
"f  c #FF3939",
"g  c #FF3D3D",
"h  c #FF3F3F",
"j  c #FF4444",
"k  c #FF4545",
"l  c #FF4848",
"z  c #FF4949",
"x  c #FF4B4B",
"c  c #FF4D4D",
"v  c #FF4E4E",
"b  c #FF4F4F",
"n  c #FF5353",
"m  c #FF5454",
"M  c #FF5555",
"N  c #FF5656",
"B  c #FF5959",
"V  c #FF5A5A",
"C  c #FF5B5B",
"Z  c #FF5C5C",
"A  c #FF5D5D",
"S  c #FF5E5E",
"D  c #FF5F5F",
"F  c #FF6161",
"G  c #FF6262",
"H  c #FF6464",
"J  c #FF6565",
"K  c #FF6666",
"L  c #FF6767",
"P  c #FF6868",
"I  c #FF6969",
"U  c #FF6C6C",
"Y  c #FF6D6D",
"T  c #FF7070",
"R  c #FF7171",
"E  c #FF7272",
"W  c #FF7474",
"Q  c #FF7575",
"!  c #FF7676",
"~  c #FF7777",
"^  c #FF7878",
"/  c #FF7A7A",
"(  c #FF7C7C",
")  c #FF7D7D",
"_  c #FF8080",
"`  c #FF8484",
"'  c #FF8686",
"]  c #FF8888",
"[  c #FF8989",
"{  c #FF8A8A",
"}  c #FF8B8B",
"|  c #FF8C8C",
" . c #FF8E8E",
".. c #FF9090",
"X. c #FF9191",
"o. c #FF9292",
"O. c #FF9494",
"+. c #FF9696",
"@. c #FF9898",
"#. c #FF9B9B",
"$. c #FF9C9C",
"%. c #FF9D9D",
"&. c #FFA0A0",
"*. c #FFA2A2",
"=. c #FFA3A3",
"-. c #FFA6A6",
";. c #FFA7A7",
":. c #FFA9A9",
">. c #FFAEAE",
/* pixels */
"                                                                                                                                ",
"                                                                                                                                ",
"                                                                                                                                ",
"                                                                                                                                ",
"                                                                                                                                ",
"                                                                                                                                ",
"                                                                @ @                                                             ",
"                                                                # $                                                             ",
"                                                                $ % %                                                           ",
"                                                                % % % %                                                         ",
"                                                                  % % % %                                                       ",
"                                                                  % & & & %                                                     ",
"                                                                  * & & & & % $                                                 ",
"                                                                  * * & * & & & %                                               ",
"                                                                  * * * * * * & & #                                             ",
"                                                                  * * * * = * * & %                                             ",
"                                                                & * * = = = = = * & $                                           ",
"                                                                & * = = = = = = = * %                                           ",
"                                                              * * = = = = = = = = *                                             ",
"                                                          = = = = = = = = = = = * *                                             ",
"                                                        = - - - - = - - - = = - =                                               ",
"                                                      = - - - - - - - - - - - - =                                               ",
"                                                    = = - - - - - - - - - - - - ;                                               ",
"                                                    = - - - - - - - - - - - - ; ;                                               ",
"                                                  = - - ; ; - ; - - - - - - - ; = *                                             ",
"                                                ; - - - - ; ; ; - ; - - - - ; ; = =                                             ",
"                                              : : ; ; ; ; ; ; ; ; ; ; ; ; ; ; - - - -                                           ",
"                                            : ; ; ; ; ; ; ; : : : : : : ; ; ; ; ; - - - -                                       ",
"                                          - - ; ; ; ; : : : : : > : : : : ; ; ; ; ; - - - ;                                     ",
"                                        - - ; ; : ; : : > > , 1 3 < > > : : : : ; ; ; - - - -                                   ",
"                                        ; ; ; : : : > > , , 8 K ^ s 4 5 4 > > : ; ; ; ; ; - -                                   ",
"                                      - ; ; : : > < 3 5 6 9 S  .$.X.` X.X.w < > : ; ; ; - - - -                                 ",
"                                    - ; ; ; : > , w x N N B K ` &.&.&.$.X.#.K 2 > : ; ; ; - - -                                 ",
"                                    = ; ; : : , 1 x n N N B P ( X.-.$.$.$.-.#.f 1 > : ; ; ; - - -                               ",
"                                  * - ; : : > , 7 B B B N S Y _ +.&.>.:.+.#.#.[ F 9 > ; ; ; - - -                               ",
"                                  * = ; : > , 6 B F S S S P ( X. .( s 9 8 g Q [ [ ` w > ; ; - - - -                             ",
"                                  = - ; : , 6 B K P K K K R ^ [ k 1 > ; ; ; , r ` [ ( 4 : ; - - = *                             ",
"                                  - ; : , 0 S Y K B u 5 4 r ( n 2 : ; - = = = , B Q K w : - - - = * &                           ",
"                                - - ; > 9 R R Q P q < < < 1 i 7 < 2 1 ; * & & & < > > : ; - - = = = * &                         ",
"                              - - - ; , f R R R F 3 , , , , e w c  .Q r = & % $ ; ; ; ; - - - = = = * &                         ",
"                            = = - ; ; < s c c N t < , > > , 3 c [ X.[ r = % $ # $ = - - - - - = = = * * &                       ",
"                            = = - - ; , r f g q < > > > > > 2 ^ [ [ x : & $ # @ @ + # - = = = = = = * * &                       ",
"                          * = = = - - > w t 8 , > : : : : > < N _ ^ 2 * % $ @ @ + + + + = = = = = = * * *                       ",
"                          * * = = - - ; , 1 : : : : : : : > , u R k : & $ # @ + + + O O $ = = = * * * * *                       ",
"                          * * * = = = - - - ; ; ; : : : : > > r N 6 = % # @ @ + + O O O O & * * * * * & & &                     ",
"                        & & & * * = = = = - - ; ; : 1 7 , > , r k : & $ # @ + + + O O O O + * * * * & & &                       ",
"                        & & * * * * * = = = = - ; < r u 0 , , r t - % # @ @ + O O O O o o X * * * & & & %                       ",
"                        & & & & * * * * = = = - - < u t u 9 7 i e = % # @ + + O O o O o o O * & & & % $                         ",
"                        % % % & & & * * * = = = = > r r w q w r 0 * $ @ @ + O O O o o X X # * & & % $                           ",
"                        % % % % & & & * * * * = & % < 9 7 0 q q 8 & # @ + O # * & O X X O & & & % $                             ",
"                          % % % % % & & & * * * $ @ $ & * , 8 5 - # @ + O @ * * * * @ O & & % % $ @                             ",
"                          $ $ % % % % % & & & & % + + @ # # $ $ @ + + O o @ & & & & & & % % % # @                               ",
"                            $ $ $ % % % % % & & & O O O O + + + + O O o X O & & & % % % % % $ $                                 ",
"                              $ $ $ $ % % % % % & % O o o O o O o o X X X X % % % % % % $ $ $                                   ",
"                                  # $ $ $ $ $ % % % $ X X X X X X X X X X X % % % $ $ $ $ $ #                                   ",
"                                    # # # $ $ $ $ $ $ % $ % X X X X X X X + $ $ $ $ $ # # #                                     ",
"                                        # # # # # $ $ $ $ $ $ @ X . . . + $ $ # # # # #                                         ",
"                                          + @ # # # # # # # # # # # # # # # # # # # @                                           ",
"                                              + @ @ @ # @ # # @ @ # @ # @ @ @ @ @                                               ",
"                                                    + @ @ @ @ @ @ @ @ @ + @ +                                                   ",
"                                                                  + + +                                                         ",
"                                                                                                                                ",
"                                                                                                                                ",
"                                                                                                                                "
};
