/* XPM */
static char *_a6c5c2f7add4303ab0a59351a7555d0qzDtreV9PnNuifA1[] = {
/* columns rows colors chars-per-pixel */
"64 64 7 1 ",
"  c #2E2721",
". c #3B3329",
"X c #40382D",
"o c #4D4131",
"O c #594C36",
"+ c #665338",
"@ c #7A633D",
/* pixels */
"o ..o..+oX..XXXX..XoOO+OoXXX.  Xo ..o..+oX..XXXX..XoOO+OoXXX.  X",
"X .ooX OOoXoooooXX.XXXoOOooXX. XX .ooX OOoXoooooXX.XXXoOOooXX. X",
"X..oOo.+ooooOOOoooooooooooOOo. .X..oOo.+ooooOOOoooooooooooOOo. .",
"o ..o. +OOoXXooO+++OooXooOooX. .o ..o. +OOoXXooO+++OooXooOooX. .",
"O  .o. OooXX..XXXooXXX.XooXX.. .O  .o. OooXX..XXXooXXX.XooXX.. .",
"O.        . ..    .     .      .O.        . ..    .     .      .",
"O.XoooooXXoOo.XoOX.OoXXooXXo.. XO.XoooooXXoOo.XoOX.OoXXooXXo.. X",
"O.oO+@++O+@@+ooO+o @OoOOOOooXX oO.oO+@++O+@@+ooO+o @OoOOOOooXX o",
"o XXooOOooooOOOoo. OO++@@+OooX oo XXooOOooooOOOoo. OO++@@+OooX o",
"o oOOO++@@+++O++OX +OOOOOO+OOo Xo oOOO++@@+++O++OX +OOOOOO+OOo X",
"O XoOooOOOOOoooOOo.@+OOoooooXX XO XoOooOOOOOoooOOo.@+OOoooooXX X",
"O..oXX..XooXXXooX..OXoooXXXoX. .O..oXX..XooXXXooX..OXoooXXXoX. .",
"O.    .   .           .  .     .O.    .   .           .  .     .",
"o..oXXoooXXoXX.XoXXoXXXoooXX.. Xo..oXXoooXXoXX.XoXXoXXXoooXX.. X",
"X .OO++@++OOoooooOOoooO++OoOOo XX .OO++@++OOoooooOOoooO++OoOOo X",
"X XoOOoooOOOOOOoOO++OooXXXo+XX oX XoOOoooOOOOOOoOO++OooXXXo+XX o",
"O..XooOOOO+@@+OO++@@++OoOOOOo. XO..XooOOOO+@@+OO++@@++OoOOOOo. X",
"O XOOO++OooooXXXoOOOO+++OooooX XO XOOO++OooooXXXoOOOO+++OooooX X",
"o.oO++@@++OOooXooooooooOO++o.o.Xo.oO++@@++OOooXooooooooOO++o.o.X",
"o..oOOooXoooXooXX.XXoXXooXXoo. Xo..oOOooXoooXooXX.XXoXXooXXoo. X",
"O.  .           .          .   oO.  .           .          .   o",
"o ..oX.Xo. OooXXoOoooX.Xoooo.  Xo ..oX.Xo. OooXXoOoooX.Xoooo.  X",
"O .Xoooooo.+OOooOOOXX..X..XoX. XO .Xoooooo.+OOooOOOXX..X..XoX. X",
"O .oOOOoO. OoooOOooooOOO++Ooo. .O .oOOOoO. OoooOOooooOOO++Ooo. .",
"O  X...Xo..ooXXooXX.XXXooXXX.. .O  X...Xo..ooXXooXX.XXXooXXX.. .",
"O. .            . ...          .O. .            . ...          .",
"O.XoOOoooOOoOOoXXXoOOOoX OoXX. .O.XoOOoooOOoOOoXXXoOOOoX OoXX. .",
"o.XoOooXXXooOOOOoXooOOOo.@OOoX .o.XoOooXXXooOOOOoXooOOOo.@OOoX .",
"X.oOoOOO++@@+OoO+@@++OOo +OoXo .X.oOoOOO++@@+OoO+@@++OOo +OoXo .",
"X oOO+++OOOOOOOXOOOOOOOo.@OOOo XX oOO+++OOOOOOOXOOOOOOOo.@OOOo X",
"X .oXXXXooooXXX.XoXX.Xo..OOoo. XX .oXXXXooooXXX.XoXX.Xo..OOoo. X",
"o  .      .   .           .    Xo  .      .   .           .    X",
"o ..o..+oX..XXXX..XoOO+OoXXX.  Xo ..o..+oX..XXXX..XoOO+OoXXX.  X",
"X .ooX OOoXoooooXX.XXXoOOooXX. XX .ooX OOoXoooooXX.XXXoOOooXX. X",
"X..oOo.+ooooOOOoooooooooooOOo. .X..oOo.+ooooOOOoooooooooooOOo. .",
"o ..o. +OOoXXooO+++OooXooOooX. .o ..o. +OOoXXooO+++OooXooOooX. .",
"O  .o. OooXX..XXXooXXX.XooXX.. .O  .o. OooXX..XXXooXXX.XooXX.. .",
"O.        . ..    .     .      .O.        . ..    .     .      .",
"O.XoooooXXoOo.XoOX.OoXXooXXo.. XO.XoooooXXoOo.XoOX.OoXXooXXo.. X",
"O.oO+@++O+@@+ooO+o @OoOOOOooXX oO.oO+@++O+@@+ooO+o @OoOOOOooXX o",
"o XXooOOooooOOOoo. OO++@@+OooX oo XXooOOooooOOOoo. OO++@@+OooX o",
"o oOOO++@@+++O++OX +OOOOOO+OOo Xo oOOO++@@+++O++OX +OOOOOO+OOo X",
"O XoOooOOOOOoooOOo.@+OOoooooXX XO XoOooOOOOOoooOOo.@+OOoooooXX X",
"O..oXX..XooXXXooX..OXoooXXXoX. .O..oXX..XooXXXooX..OXoooXXXoX. .",
"O.    .   .           .  .     .O.    .   .           .  .     .",
"o..oXXoooXXoXX.XoXXoXXXoooXX.. Xo..oXXoooXXoXX.XoXXoXXXoooXX.. X",
"X .OO++@++OOoooooOOoooO++OoOOo XX .OO++@++OOoooooOOoooO++OoOOo X",
"X XoOOoooOOOOOOoOO++OooXXXo+XX oX XoOOoooOOOOOOoOO++OooXXXo+XX o",
"O..XooOOOO+@@+OO++@@++OoOOOOo. XO..XooOOOO+@@+OO++@@++OoOOOOo. X",
"O XOOO++OooooXXXoOOOO+++OooooX XO XOOO++OooooXXXoOOOO+++OooooX X",
"o.oO++@@++OOooXooooooooOO++o.o.Xo.oO++@@++OOooXooooooooOO++o.o.X",
"o..oOOooXoooXooXX.XXoXXooXXoo. Xo..oOOooXoooXooXX.XXoXXooXXoo. X",
"O.  .           .          .   oO.  .           .          .   o",
"o ..oX.Xo. OooXXoOoooX.Xoooo.  Xo ..oX.Xo. OooXXoOoooX.Xoooo.  X",
"O .Xoooooo.+OOooOOOXX..X..XoX. XO .Xoooooo.+OOooOOOXX..X..XoX. X",
"O .oOOOoO. OoooOOooooOOO++Ooo. .O .oOOOoO. OoooOOooooOOO++Ooo. .",
"O  X...Xo..ooXXooXX.XXXooXXX.. .O  X...Xo..ooXXooXX.XXXooXXX.. .",
"O. .            . ...          .O. .            . ...          .",
"O.XoOOoooOOoOOoXXXoOOOoX OoXX. .O.XoOOoooOOoOOoXXXoOOOoX OoXX. .",
"o.XoOooXXXooOOOOoXooOOOo.@OOoX .o.XoOooXXXooOOOOoXooOOOo.@OOoX .",
"X.oOoOOO++@@+OoO+@@++OOo +OoXo .X.oOoOOO++@@+OoO+@@++OOo +OoXo .",
"X oOO+++OOOOOOOXOOOOOOOo.@OOOo XX oOO+++OOOOOOOXOOOOOOOo.@OOOo X",
"X .oXXXXooooXXX.XoXX.Xo..OOoo. XX .oXXXXooooXXX.XoXX.Xo..OOoo. X",
"o  .      .   .           .    Xo  .      .   .           .    X"
};
